<svg width="512" height="512" viewBox="0 0 512 512" fill="none" xmlns="http://www.w3.org/2000/svg">
  <defs>
    <filter id="softShadow" x="-20%" y="-20%" width="140%" height="140%">
      <feGaussianBlur in="SourceAlpha" stdDeviation="4"/>
      <feOffset dx="2" dy="4" result="offsetblur"/>
      <feComponentTransfer>
        <feFuncA type="linear" slope="0.3"/>
      </feComponentTransfer>
      <feMerge>
        <feMergeNode/>
        <feMergeNode in="SourceGraphic"/>
      </feMerge>
    </filter>

    <linearGradient id="blueBodyGrad" x1="100" y1="100" x2="300" y2="450" gradientUnits="userSpaceOnUse">
      <stop offset="0%" stop-color="#55C9F3"/> <stop offset="50%" stop-color="#2D9CDB"/> <stop offset="100%" stop-color="#1565C0"/> </linearGradient>

    <linearGradient id="greenBodyGrad" x1="412" y1="100" x2="200" y2="450" gradientUnits="userSpaceOnUse">
      <stop offset="0%" stop-color="#9CCC65"/> <stop offset="50%" stop-color="#66BB6A"/> <stop offset="100%" stop-color="#2E7D32"/> </linearGradient>
  </defs>

  <g transform="translate(0, 10)">
    <path d="M256 360 C256 360, 205 290, 205 240 A 51 51 0 0 1 256 189 V 360 Z" fill="#4DB6AC"/>
    <path d="M256 360 V 189 A 51 51 0 0 1 307 240 C307 290, 256 360, 256 360 Z" fill="#00897B"/>
    <circle cx="256" cy="240" r="18" fill="#1C262A"/>
  </g>

  <g filter="url(#softShadow)">
    <circle cx="172" cy="145" r="38" fill="#55C9F3"/>
    
    <path d="M172 190 
             C 120 190, 110 260, 125 310 
             C 145 375, 200 420, 256 460 
             L 256 460 
             C 210 420, 165 365, 165 300 
             C 165 260, 190 230, 235 235 
             L 280 235
             C 290 235, 300 220, 285 205
             C 260 180, 220 190, 172 190 Z" 
             fill="url(#blueBodyGrad)"/>
  </g>

  <g filter="url(#softShadow)">
    <circle cx="340" cy="145" r="38" fill="#9CCC65"/>
    
    <path d="M340 190 
             C 392 190, 402 260, 387 310 
             C 367 375, 312 420, 256 460 
             L 256 460 
             C 302 420, 347 365, 347 300 
             C 347 260, 322 230, 277 235 
             L 232 235
             C 222 235, 212 220, 227 205
             C 252 180, 292 190, 340 190 Z" 
             fill="url(#greenBodyGrad)"/>
  </g>
</svg>